<?xml version="1.0" encoding="UTF-8"?><svg id="_레이어_2" xmlns="http://www.w3.org/2000/svg" viewBox="0 0 64 64"><defs><style>.cls-1{fill:#d1d2d2;}</style></defs><g id="_레이어_1-2"><g><path class="cls-1" d="M28.24,35.75c.18,1.72,.49,3,.91,3.84,.43,.84,1.18,1.26,2.28,1.26,.2,0,.39-.03,.57-.06,.19,.03,.37,.06,.57,.06,1.09,0,1.85-.42,2.28-1.26,.42-.84,.72-2.12,.91-3.84l.97-13.29c.18-2.59,.27-4.45,.27-5.58,0-1.54-.44-2.73-1.32-3.59-.88-.86-2.04-1.29-3.48-1.29-.08,0-.13,.02-.21,.02-.07,0-.13-.02-.2-.02-1.44,0-2.59,.43-3.47,1.29-.88,.86-1.32,2.06-1.32,3.59,0,1.13,.09,2.99,.27,5.58l.97,13.29h0Zm3.79,9.96c-1.39,0-2.58,.4-3.56,1.21-.98,.8-1.47,1.78-1.47,2.93,0,1.29,.5,2.31,1.49,3.05,.99,.74,2.15,1.11,3.48,1.11s2.52-.36,3.53-1.1c1-.73,1.51-1.75,1.51-3.07,0-1.15-.48-2.12-1.44-2.93-.96-.81-2.13-1.21-3.52-1.21"/><path class="cls-1" d="M32,64C14.35,64,0,49.64,0,32S14.35,0,32,0s32,14.35,32,32-14.35,32-32,32Zm0-58c-14.34,0-26,11.66-26,26s11.66,26,26,26,26-11.66,26-26S46.34,6,32,6Z"/></g></g></svg>