<svg xmlns="http://www.w3.org/2000/svg" viewBox="0 0 50 50"><defs><style>.cls-1{fill:none;}.cls-2{fill:#ea4334;}</style></defs><g id="레이어_2" data-name="레이어 2"><g id="레이어_1-2" data-name="레이어 1"><rect class="cls-1" width="50" height="50"/><path class="cls-2" d="M13.93,19.39,20.4,25l-6.47,5.61A.94.94,0,0,0,15.16,32l6.66-5.78,2.57,2.22a.92.92,0,0,0,1.22,0l2.57-2.22L34.84,32a.94.94,0,1,0,1.23-1.41L29.6,25l6.47-5.61A.94.94,0,0,0,34.84,18L25,26.52,15.16,18a.94.94,0,0,0-1.23,1.41Z"/><path class="cls-2" d="M38.46,14.6H11.54a.93.93,0,0,0-.93.93V34.47a.93.93,0,0,0,.93.93H38.46a.93.93,0,0,0,.93-.93V15.53A.93.93,0,0,0,38.46,14.6Zm-.94,18.94h-25V16.46h25V33.54Z"/></g></g></svg>