<svg xmlns="http://www.w3.org/2000/svg" viewBox="0 0 50 50"><defs><style>.cls-1{fill:#e94335;}.cls-2{fill:#34a853;}.cls-3{fill:#4285f3;}.cls-4{fill:#fabb06;}.cls-5{fill:none;}</style></defs><g id="레이어_2" data-name="레이어 2"><g id="레이어_1-2" data-name="레이어 1"><path class="cls-1" d="M14.52,19.61a11.92,11.92,0,0,1,3.29-4.16,12.25,12.25,0,0,1,6.49-2.8,12.45,12.45,0,0,1,8,1.69,13.55,13.55,0,0,1,1.75,1.25c.14.11.12.17,0,.29L30.7,19.25c-.13.13-.2.12-.34,0a7.44,7.44,0,0,0-10.5,1.49,7.32,7.32,0,0,0-1,1.91,1.51,1.51,0,0,1-.09.18l-2-1.49Z"/><path class="cls-2" d="M18.75,27.59A12.41,12.41,0,0,0,19.42,29a7.29,7.29,0,0,0,4.95,3.52,7.88,7.88,0,0,0,5.56-.85l.17-.09a.76.76,0,0,0,.09.09l3.92,3A9.91,9.91,0,0,1,32,36.28a12.13,12.13,0,0,1-7.09,1.57,12.41,12.41,0,0,1-8-3.7,11.51,11.51,0,0,1-2.36-3.34l1.62-1.24Z"/><path class="cls-3" d="M34.11,34.73l-3.91-3-.09-.09a8.09,8.09,0,0,0,1.28-1.13A5.81,5.81,0,0,0,32.63,28c0-.12,0-.16-.11-.15H26.15c-.23,0-.28-.06-.28-.27,0-1.47,0-2.94,0-4.4,0-.19.05-.24.24-.24H37.46c.16,0,.23,0,.27.21a11.8,11.8,0,0,1,.1,4.19A13.48,13.48,0,0,1,37,30.56a11.66,11.66,0,0,1-2.74,4.07Z"/><path class="cls-4" d="M18.75,27.59l-2.61,2-1.62,1.24a10.82,10.82,0,0,1-.92-2.45,12.9,12.9,0,0,1-.26-5,11.37,11.37,0,0,1,1.18-3.76l2.27,1.75,1.95,1.49a14.67,14.67,0,0,0-.32,1.63,7.85,7.85,0,0,0,.3,3A.58.58,0,0,1,18.75,27.59Z"/><rect class="cls-5" width="50" height="50"/></g></g></svg>